<?xml version="1.0" encoding="UTF-8" standalone="no"?>
<svg
   xmlns:dc="http://purl.org/dc/elements/1.1/"
   xmlns:cc="http://creativecommons.org/ns#"
   xmlns:rdf="http://www.w3.org/1999/02/22-rdf-syntax-ns#"
   xmlns:svg="http://www.w3.org/2000/svg"
   xmlns="http://www.w3.org/2000/svg"
   xmlns:sodipodi="http://sodipodi.sourceforge.net/DTD/sodipodi-0.dtd"
   xmlns:inkscape="http://www.inkscape.org/namespaces/inkscape"
   version="1.1"
   x="0px"
   y="0px"
   viewBox="0 0 16 20"
   style="enable-background:new 0 0 16 16;"
   xml:space="preserve"
   id="svg12"
   sodipodi:docname="add.svg"
   inkscape:version="0.92.1 r"><metadata
     id="metadata18"><rdf:RDF><cc:Work
         rdf:about=""><dc:format>image/svg+xml</dc:format><dc:type
           rdf:resource="http://purl.org/dc/dcmitype/StillImage" /></cc:Work></rdf:RDF></metadata><defs
     id="defs16" /><sodipodi:namedview
     pagecolor="#ffffff"
     bordercolor="#666666"
     borderopacity="1"
     objecttolerance="10"
     gridtolerance="10"
     guidetolerance="10"
     inkscape:pageopacity="0"
     inkscape:pageshadow="2"
     inkscape:window-width="2560"
     inkscape:window-height="1440"
     id="namedview14"
     showgrid="false"
     inkscape:zoom="47.2"
     inkscape:cx="1.0112582"
     inkscape:cy="8.835617"
     inkscape:window-x="0"
     inkscape:window-y="0"
     inkscape:window-maximized="1"
     inkscape:current-layer="svg12" /><style
     type="text/css"
     id="style2">
	.st0{fill:#010101;}
</style><g
     id="g6"
     transform="translate(0,2)"><path
       d="M 8,0 C 3.6,0 0,3.6 0,8 c 0,4.4 3.6,8 8,8 4.4,0 8,-3.6 8,-8 C 16,3.6 12.4,0 8,0 Z m 2.6,8.7 H 8.7 v 1.9 C 8.7,11 8.4,11.3 8,11.3 7.6,11.3 7.3,11 7.3,10.6 V 8.7 H 5.4 C 5,8.7 4.7,8.4 4.7,8 4.7,7.6 5,7.3 5.4,7.3 H 7.3 V 5.4 C 7.3,5 7.6,4.7 8,4.7 8.4,4.7 8.7,5 8.7,5.4 v 1.9 h 1.9 c 0.4,0 0.7,0.3 0.7,0.7 0,0.4 -0.3,0.7 -0.7,0.7 z"
       id="path4"
       inkscape:connector-curvature="0" /></g></svg>