<?xml version="1.0" encoding="UTF-8" standalone="no"?>
<svg
   xmlns:dc="http://purl.org/dc/elements/1.1/"
   xmlns:cc="http://creativecommons.org/ns#"
   xmlns:rdf="http://www.w3.org/1999/02/22-rdf-syntax-ns#"
   xmlns:svg="http://www.w3.org/2000/svg"
   xmlns="http://www.w3.org/2000/svg"
   xmlns:sodipodi="http://sodipodi.sourceforge.net/DTD/sodipodi-0.dtd"
   xmlns:inkscape="http://www.inkscape.org/namespaces/inkscape"
   version="1.1"
   x="0px"
   y="0px"
   viewBox="0 0 100 125"
   enable-background="new 0 0 100 100"
   xml:space="preserve"
   id="svg130"
   sodipodi:docname="delete.svg"
   inkscape:version="0.92.1 r"><metadata
     id="metadata136"><rdf:RDF><cc:Work
         rdf:about=""><dc:format>image/svg+xml</dc:format><dc:type
           rdf:resource="http://purl.org/dc/dcmitype/StillImage" /></cc:Work></rdf:RDF></metadata><defs
     id="defs134" /><sodipodi:namedview
     pagecolor="#ffffff"
     bordercolor="#666666"
     borderopacity="1"
     objecttolerance="10"
     gridtolerance="10"
     guidetolerance="10"
     inkscape:pageopacity="0"
     inkscape:pageshadow="2"
     inkscape:window-width="2560"
     inkscape:window-height="1440"
     id="namedview132"
     showgrid="false"
     inkscape:zoom="10.680141"
     inkscape:cx="46.339127"
     inkscape:cy="59.997844"
     inkscape:window-x="0"
     inkscape:window-y="0"
     inkscape:window-maximized="1"
     inkscape:current-layer="svg130" /><g
     id="g30"
     transform="matrix(1.6710274,0,0,1.5061965,-33.55137,-12.809825)"><path
       d="M 64,74 H 60 V 42 H 52 V 74 H 48 V 42 H 40 V 74 H 36 V 42 h -8 v 38 c 0,1.102 0.898,2 2,2 h 40 c 1.102,0 2,-0.898 2,-2 V 42 h -8 z"
       id="path26"
       inkscape:connector-curvature="0" /><path
       d="M 76,26 H 60 v -6 c 0,-1.098 -0.898,-2 -2,-2 H 42 c -1.102,0 -2,0.902 -2,2 v 6 H 24 c -2.199,0 -4,1.801 -4,4 v 4 c 0,2.199 1.801,4 4,4 h 52 c 2.203,0 4,-1.801 4,-4 v -4 c 0,-2.199 -1.797,-4 -4,-4 z m -32,0 v -4 h 12 v 4 z"
       id="path28"
       inkscape:connector-curvature="0" /></g></svg>