<?xml version="1.0" encoding="UTF-8" standalone="no"?>
<svg
   xmlns:dc="http://purl.org/dc/elements/1.1/"
   xmlns:cc="http://creativecommons.org/ns#"
   xmlns:rdf="http://www.w3.org/1999/02/22-rdf-syntax-ns#"
   xmlns:svg="http://www.w3.org/2000/svg"
   xmlns="http://www.w3.org/2000/svg"
   xmlns:sodipodi="http://sodipodi.sourceforge.net/DTD/sodipodi-0.dtd"
   xmlns:inkscape="http://www.inkscape.org/namespaces/inkscape"
   version="1.1"
   x="0px"
   y="0px"
   viewBox="0 0 100 125"
   style="enable-background:new 0 0 100 100;"
   xml:space="preserve"
   id="svg10"
   sodipodi:docname="tex.svg"
   inkscape:version="0.92.1 r"><metadata
     id="metadata16"><rdf:RDF><cc:Work
         rdf:about=""><dc:format>image/svg+xml</dc:format><dc:type
           rdf:resource="http://purl.org/dc/dcmitype/StillImage" /></cc:Work></rdf:RDF></metadata><defs
     id="defs14" /><sodipodi:namedview
     pagecolor="#ffffff"
     bordercolor="#666666"
     borderopacity="1"
     objecttolerance="10"
     gridtolerance="10"
     guidetolerance="10"
     inkscape:pageopacity="0"
     inkscape:pageshadow="2"
     inkscape:window-width="2560"
     inkscape:window-height="1440"
     id="namedview12"
     showgrid="false"
     inkscape:zoom="7.552"
     inkscape:cx="8.9826401"
     inkscape:cy="72.890737"
     inkscape:window-x="0"
     inkscape:window-y="0"
     inkscape:window-maximized="1"
     inkscape:current-layer="svg10" /><g
     id="g4"
     transform="matrix(1.3210959,0,0,1.3210959,-16.120852,-3.620852)"><path
       d="m 83.7,26.3 c 0,-0.8 -0.3,-1.6 -0.9,-2.2 L 66,6.1 c -0.6,-0.7 -1.5,-1 -2.4,-1 h -42 c -2.9,0 -5.3,2.4 -5.3,5.3 v 79.3 c 0,2.9 2.4,5.3 5.3,5.3 h 56.9 c 2.9,0 5.3,-2.4 5.3,-5.3 z M 42.4,62.9 c 0,0.8 -0.4,1.2 -1.2,1.2 h -3.4 v 10.7 c 0,0.8 -0.4,1.2 -1.2,1.2 H 35.2 C 34.4,76 34,75.6 34,74.8 V 64.1 h -3.4 c -0.8,0 -1.2,-0.4 -1.2,-1.2 v -0.8 c 0,-0.8 0.4,-1.2 1.2,-1.2 h 10.5 c 0.8,0 1.2,0.4 1.2,1.2 v 0.8 z m 12.7,11.9 c 0,0.8 -0.4,1.2 -1.2,1.2 h -7.4 c -0.8,0 -1.2,-0.4 -1.2,-1.2 V 62.1 c 0,-0.8 0.4,-1.2 1.2,-1.2 h 7.1 c 0.8,0 1.2,0.4 1.2,1.2 v 0.8 c 0,0.8 -0.4,1.2 -1.2,1.2 H 49 v 2.7 h 3.4 c 0.8,0 1.2,0.4 1.2,1.2 v 0.8 c 0,0.8 -0.4,1.2 -1.2,1.2 H 49 v 2.8 h 5 c 0.8,0 1.2,0.4 1.2,1.2 v 0.8 z m 14.7,-0.3 c 0.5,0.8 0.2,1.4 -0.8,1.4 h -1.5 c -0.6,0 -1,-0.3 -1.4,-0.8 l -1.3,-2.3 c -0.5,-0.9 -0.9,-1.9 -0.9,-1.9 v 0 c 0,0 -0.4,0.9 -0.9,1.9 l -1.3,2.3 c -0.3,0.6 -0.7,0.8 -1.4,0.8 h -1.5 c -0.9,0 -1.3,-0.6 -0.8,-1.4 L 61.7,68.4 58,62.3 c -0.5,-0.8 -0.1,-1.4 0.8,-1.4 h 1.6 c 0.6,0 1,0.3 1.4,0.8 L 63,64 c 0.5,0.9 0.9,1.9 0.9,1.9 v 0 c 0,0 0.4,-1 0.9,-1.9 L 66,61.7 c 0.3,-0.6 0.7,-0.8 1.4,-0.8 H 69 c 0.9,0 1.3,0.6 0.8,1.4 L 66,68.5 Z m 9.3,-47.2 h -11 c -2.9,0 -5.3,-2.4 -5.3,-5.3 V 10.2 c 0,-0.3 0.4,-0.4 0.6,-0.2 l 16,16.7 c 0.1,0.2 0,0.6 -0.3,0.6 z"
       id="path2"
       inkscape:connector-curvature="0" /></g></svg>