<?xml version="1.0" encoding="UTF-8" standalone="no"?>
<svg
   xmlns:dc="http://purl.org/dc/elements/1.1/"
   xmlns:cc="http://creativecommons.org/ns#"
   xmlns:rdf="http://www.w3.org/1999/02/22-rdf-syntax-ns#"
   xmlns:svg="http://www.w3.org/2000/svg"
   xmlns="http://www.w3.org/2000/svg"
   xmlns:sodipodi="http://sodipodi.sourceforge.net/DTD/sodipodi-0.dtd"
   xmlns:inkscape="http://www.inkscape.org/namespaces/inkscape"
   version="1.0"
   x="0px"
   y="0px"
   viewBox="0 0 100 70.66625"
   enable-background="new 0 0 100 56.533"
   xml:space="preserve"
   id="svg10"
   sodipodi:docname="view.svg"
   inkscape:version="0.92.1 r"><metadata
     id="metadata16"><rdf:RDF><cc:Work
         rdf:about=""><dc:format>image/svg+xml</dc:format><dc:type
           rdf:resource="http://purl.org/dc/dcmitype/StillImage" /></cc:Work></rdf:RDF></metadata><defs
     id="defs14" /><sodipodi:namedview
     pagecolor="#ffffff"
     bordercolor="#666666"
     borderopacity="1"
     objecttolerance="10"
     gridtolerance="10"
     guidetolerance="10"
     inkscape:pageopacity="0"
     inkscape:pageshadow="2"
     inkscape:window-width="2560"
     inkscape:window-height="1440"
     id="namedview12"
     showgrid="false"
     inkscape:zoom="3.3396422"
     inkscape:cx="5.8335917"
     inkscape:cy="35.333126"
     inkscape:window-x="0"
     inkscape:window-y="0"
     inkscape:window-maximized="1"
     inkscape:current-layer="svg10" /><path
     d="m 91.910933,35.177243 c -0.0017,-0.03521 -0.005,-0.06874 -0.0075,-0.103112 -0.0017,-0.01761 -0.0025,-0.03521 -0.0042,-0.05198 -0.0025,-0.02515 -0.0067,-0.0503 -0.01006,-0.07461 -0.0034,-0.02934 -0.0067,-0.05868 -0.01174,-0.08719 -8.38e-4,-0.0034 -0.0017,-0.0075 -0.0017,-0.0109 C 91.772612,34.201449 91.467467,33.593674 90.99969,33.125896 88.325478,29.956243 85.144088,27.135327 81.909046,24.559197 74.941845,19.007903 66.9737,14.36366 58.178142,12.494227 53.094625,11.414483 47.979252,11.368376 42.868908,12.282135 c -4.648433,0.831604 -9.128367,2.560201 -13.321598,4.702923 -6.563136,3.353244 -12.557059,7.976528 -17.779735,13.159805 -0.966573,0.959027 -1.9281154,1.938174 -2.8066652,2.980195 -1.170282,1.386566 -1.170282,3.028817 0,4.415383 2.6742122,3.169654 5.8556012,5.989732 9.0906432,8.566699 6.96804,5.551295 14.936185,10.194699 23.731743,12.064132 5.083517,1.080583 10.199728,1.12669 15.310072,0.212931 4.647595,-0.831604 9.127528,-2.560201 13.321598,-4.702924 6.563136,-3.354082 12.557059,-7.976528 17.779735,-13.159804 0.966573,-0.959866 1.928115,-1.938175 2.806665,-2.980195 0.467778,-0.468616 0.772923,-1.075553 0.876035,-1.724406 0,-0.0034 8.38e-4,-0.0075 0.0017,-0.0109 0.005,-0.02934 0.0084,-0.05784 0.01174,-0.08718 0.0034,-0.02431 0.0075,-0.04946 0.01006,-0.07461 0.0017,-0.0176 0.0025,-0.03437 0.0042,-0.05197 0.0025,-0.03353 0.0059,-0.06706 0.0075,-0.102274 0.0025,-0.05197 0.0042,-0.103951 0.0042,-0.156764 0,-0.05281 -0.0034,-0.103951 -0.0059,-0.155926 z M 49.999581,51.463108 c -8.90873,0 -16.12994,-7.221209 -16.12994,-16.129939 0,-8.907892 7.22121,-16.12994 16.12994,-16.12994 8.90873,0 16.12994,7.22121 16.12994,16.12994 0,8.90873 -7.22121,16.129939 -16.12994,16.129939 z"
     id="path2"
     inkscape:connector-curvature="0"
     style="stroke-width:0.8383109" /><circle
     cx="50"
     cy="35.333126"
     r="5.3392019"
     id="circle4"
     style="stroke-width:0.8383109" /></svg>